<svg width="657" height="399" viewBox="0 0 657 399" fill="none" xmlns="http://www.w3.org/2000/svg">
<path d="M407.5 264.869L285 345.869L303 368.869L407.5 264.869Z" fill="#0f172a" stroke="#0f172a"/>
<path d="M491 324.869C482.6 334.869 425.5 352.702 398 360.369L419 340.369C426 315.869 401.5 288.369 396.5 286.369C403.333 277.202 417 257.269 417 256.869C417 256.869 395.333 266.202 384.5 270.369L378 264.369L409 223.869C457.4 246.669 483.833 300.702 491 324.869Z" fill="#0f172a"/>
<path d="M169.5 293.869C154.7 304.669 138.667 353.702 132.5 376.869C132.5 324.869 149.833 292.869 158.5 283.369L169.5 293.869Z" fill="#0f172a"/>
<path d="M175 287.369L161.5 275.869C169.5 257.069 200.167 237.036 214.5 229.369L223.5 249.369C212.3 253.769 186.5 276.536 175 287.369Z" fill="#0f172a"/>
<path d="M294 200.869C268.8 202.469 235.5 216.869 222 223.869L233.5 247.869C248.7 239.469 280.167 236.702 294 236.369V200.869Z" fill="#0f172a"/>
<path d="M301.5 236.369L303.5 200.869C337.1 194.069 382.5 209.369 401 217.869L370.5 260.869C361.3 244.869 320.667 237.869 301.5 236.369Z" fill="#0f172a"/>
<path d="M506.5 304.369C517 279.369 511.5 252.369 469 246.369L561.5 179.869V256.869L506.5 304.369Z" fill="#0f172a"/>
<path d="M36.5 293.369L219 176.869H269.5L36.5 293.369Z" fill="#0f172a"/>
<path d="M147.5 262.369L0 355.369L128 295.869L147.5 262.369Z" fill="#0f172a"/>
<path d="M115 341.869L120.5 320.869L51 367.869L115 341.869Z" fill="#0f172a"/>
<path d="M656.5 0.369194C647.5 57.7025 597.4 187.169 469 246.369C471 218.869 425.5 174.869 337.5 179.369C334 164.369 310 137.869 249 158.869L334 95.3691L442.5 76.5265C501.816 32.4204 577.172 -4.08744 656.5 0.369194Z" fill="#0f172a"/>
<path d="M279.5 338.369C296.069 338.369 309.5 351.801 309.5 368.369C309.5 384.938 296.069 398.369 279.5 398.369C262.931 398.369 249.5 384.938 249.5 368.369C249.5 351.801 262.931 338.369 279.5 338.369ZM279.5 358.369C273.977 358.369 269.5 362.846 269.5 368.369C269.5 373.892 273.977 378.369 279.5 378.369C285.023 378.369 289.5 373.892 289.5 368.369C289.5 362.846 285.023 358.369 279.5 358.369Z" fill="#0f172a"/>
<circle cx="569.5" cy="72.3691" r="31" fill="white"/>
<path d="M456 199.757C448.4 179.357 417.167 171.923 402.5 170.757C453.3 138.757 486 136.423 496 139.257C495.6 154.457 469.167 185.923 456 199.757Z" fill="white"/>
<circle cx="279.5" cy="368.369" r="11" fill="white"/>
<path d="M388.5 280.369L296.5 364.369L323 333.869L285.5 352.369L388.5 280.369Z" fill="white"/>
</svg>
